<?xml version="1.0" encoding="utf-8"?>
<!-- Generator: Adobe Illustrator 15.0.0, SVG Export Plug-In . SVG Version: 6.00 Build 0)  -->
<!DOCTYPE svg PUBLIC "-//W3C//DTD SVG 1.1//EN" "http://www.w3.org/Graphics/SVG/1.1/DTD/svg11.dtd">
<svg version="1.1" xmlns="http://www.w3.org/2000/svg" xmlns:xlink="http://www.w3.org/1999/xlink" x="0px" y="0px"
	 width="509.146px" height="565.012px" viewBox="0 0 509.146 565.012" enable-background="new 0 0 509.146 565.012"
	 xml:space="preserve">
<g id="MK" display="none">
	<g display="inline">
		<path fill-rule="evenodd" clip-rule="evenodd" fill="#F2F2F2" stroke="#000000" stroke-width="0.25" stroke-miterlimit="10" d="
			M405.146,264.097c-28.897,0-52.323,23.425-52.323,52.322s23.426,52.322,52.323,52.322c28.896,0,52.322-23.425,52.322-52.322
			S434.043,264.097,405.146,264.097L405.146,264.097z M384.871,274.055c0,0,2.43-2.616,4.547,0.462c0,0-0.183-2.017-1.963-2.955
			c1.725-0.683,3.499-1.267,5.314-1.752c-0.513,0.785-0.879,1.813-0.921,3.167c0,0,0.079,3.617,3.919,7.003c0,0-5.33-1-9.407-1.923
			C386.36,278.057,382.989,276.287,384.871,274.055L384.871,274.055z M395.061,348.239c0,0-1.176,3.539-4.938,4.694
			c0,0-4.86,0.692-10.112-0.463c0,0-8.858-1.153-13.64-7.926c0,0-1.254-1.077-3.371-4.31v0.037
			c-3.923-6.997-6.162-15.064-6.162-23.656c0-18.188,10.026-34.033,24.853-42.315c-0.009,0.632,0.113,1.388,0.436,2.293
			c0,0,1.019,3.079,7.761,5.157c0,0-9.956-0.847-14.267,2.77c0,0-2.038,1.847-2.822,3.386c0,0-3.214,5.387-5.958,2
			c0,0-0.94,2.771,2.117,4.617c0,0-4.547,2.924-4.468,9.928c0,0-0.079,7.926-0.549,10.234c0,0-1.176,7.311-5.879,6.618
			c0,0,3.057,3.848,9.25-0.847c0,0,2.9,8.157,5.958,11.005c0,0-1.254,3.693-0.157,5.849c0,0,1.567,7.849-5.645,4.232
			c0,0,1.098,3.54,6.898,2.078c0,0,2.352-0.462,1.959-4.618c0,0,1.803-2.616,2.744-1.538c0,0,0,0.076,1.489,1.23
			c0,0-0.392,1.924,0.784,3.926c0,0,0.314,2.462-0.47,2.924c0,0,1.646,0.307,3.449-2.694c0,0,0.392-1.153,1.176-1.384
			c0,0,4.311,2.308,6.741,2.462C392.239,343.93,396.551,345.622,395.061,348.239L395.061,348.239z M438.856,351.532
			c0.459-0.808,3.714-6.888,1.67-13.835c0,0-1.254-5.542-6.35-10.775c0,0-4.154-3.924-10.033-5.925c0,0-3.685-1.385-11.053-0.308
			c0,0-9.799,0.692-15.286-0.616c0,0-6.35-0.538-9.329-5.771c0,0-2.195-4.694,0.314-8.773c0,0-3.45-5.002,0.47-7.387
			c0,0,0.078,5.694,2.195,7.002c0,0,2.978,2.464,7.055,1.771c0,0,2.978-1.001,4.39-2.692c0,0,2.037-1.771,6.663,0.692
			c0,0,6.506,3.077,11.993,9.927c0,0,1.646-0.462,3.684,0.693c0,0,5.487,2.153,9.094-1.617c0,0,2.194,2.386,4.154,10.928
			c0,0,2.195,10.004,8.858,7.157c0,0-3.371,1.385-6.428-4.694c0,0,3.214,2.001,7.917,0.692c0,0,3.136-0.923,3.136-3.925
			c0,0,0.627-3.154-3.214-4.54c0,0,3.684,2.154,1.881,5.849c0,0-1.568,2.386-5.487,1.847c0,0-2.743,0.616-5.723-3.54
			c0,0-1.488-3.924-2.43-7.388c0,0-1.725-5.155-4.547-6.695c0,0,4.154-1.001,4.547,1.463c0,0,0,0.999,0.47,0.999
			c0,0,1.489-0.896,1.071-2.539l-0.052-0.153c0,0,1.307-0.052,1.098-1.796c0,0-0.104-0.975,0.783-1.642c0,0,1.568-0.308-1.045-2.616
			c0,0,0.471-0.514,1.882-0.257c0,0,0.993,0.514,0.261-0.872c0,0-1.045-2.104-3.24-2.822c0,0-0.731-0.564-1.62,0.412
			c0,0-1.463,1.025-3.135,0.102c0,0-1.985-0.77-3.083-1.487c0,0-0.366-0.462-2.562-0.718c0,0-3.763-0.977-6.01-4.207
			c0,0-1.255-1.95,0.732-2.515c0,0,1.776-0.41,2.978,0.052c0,0-0.888-3.746-4.703-5.592c0,0-1.357-0.616-3.971,0.051
			c0,0,0.156-4.155-2.822-4.463c0,0-5.174,0.308-7.421-0.41c0,0-1.673,0-2.352-1.795c0,0-1.254,0.41-1.907,1.642
			c0,0-0.941-2.001-5.409-2.155c0,0-2.979-1.308-2.665-5.542c0,0,0.549-3.616,3.685-3.616c0,0,2.9-0.385,3.919,3.155
			c0,0,0.927-2.453-1.121-3.898c1.488-0.138,2.996-0.212,4.52-0.212c26.754,0,48.442,21.688,48.442,48.441
			C453.722,330.335,448.019,342.719,438.856,351.532L438.856,351.532z M429.187,302.604c-0.836,1.181-1.881,0.976-1.881,0.976
			c-1.83-0.462-1.673-1.694-1.673-1.694c0-2.462,2.665-1.949,2.665-1.949c2.822,0,3.763,2.31,3.763,2.31
			C429.761,301.784,429.187,302.604,429.187,302.604L429.187,302.604z M433.524,311.993c-0.68,1.129-2.719,1.488-2.719,1.488
			c-1.776-1.18-0.313-3.848-0.313-3.848C431.852,310.249,433.524,311.993,433.524,311.993L433.524,311.993z M429.396,308.762
			c0,0-1.986,2.001,0.47,4.72c0,0-4.181,0.872-9.093-3.129c0,0-10.922-8.414-16.147-9.697c0,0,4.494-3.949,8.936-3.232
			c0,0,2.561,0.411,4.809,2.566C418.369,299.989,424.797,307.273,429.396,308.762L429.396,308.762z M410.948,292.755
			c0,0-3.397-1.026-6.376-1.385c0,0-0.365-3.386,3.658-3.386c0,0,1.463-0.205,3.657,1.539c0,0,2.823,2.616,4.757,3.129
			C416.645,292.652,414.188,293.575,410.948,292.755L410.948,292.755z"/>
	</g>
</g>
<g id="MK__x28_Mask_x29_" display="none">
</g>
<g id="Inner_Cube__x28_Mask_x29_" display="none">
</g>
<g id="Outer_Cube__x28_Mask_x29_" display="none">
</g>
<g id="Outer_Cube" display="none">
</g>
<g id="Inner_Cube">
	<g>
		<defs>
			<path id="SVGID_1_" d="M244.544,445.366l-140.548-77.273V214.971l140.548,81.155V445.366 M264.611,445.366l140.55-77.273V214.971
				l-140.55,81.155V445.366 M113.512,197.252l141.091-77.604l141.094,77.604l-141.094,81.483L113.512,197.252"/>
		</defs>
		<clipPath id="SVGID_2_">
			<use xlink:href="#SVGID_1_"  overflow="visible"/>
		</clipPath>
		<g clip-path="url(#SVGID_2_)">
			<path fill-rule="evenodd" clip-rule="evenodd" fill="#E6E6E6" stroke="#1D1D1B" stroke-miterlimit="10" d="M254.578,7.816
				c-151.709,0-274.694,122.98-274.694,274.692c0,151.711,122.985,274.691,274.694,274.691
				c151.707,0,274.691-122.98,274.691-274.691C529.269,130.797,406.284,7.816,254.578,7.816L254.578,7.816z M148.129,60.096
				c0,0,12.758-13.735,23.874,2.425c0,0-0.964-10.59-10.31-15.514c9.054-3.586,18.37-6.652,27.9-9.198
				c-2.691,4.12-4.619,9.521-4.834,16.629c0,0,0.41,18.987,20.575,36.765c0,0-27.983-5.25-49.386-10.097
				C155.948,81.106,138.252,71.813,148.129,60.096L148.129,60.096z M201.626,449.565c0,0-6.173,18.58-25.922,24.645
				c0,0-25.52,3.635-53.09-2.43c0,0-46.504-6.055-71.608-41.61c0,0-6.585-5.655-17.696-22.626v0.195
				C12.713,371.005,0.96,328.651,0.96,283.544c0-95.489,52.639-178.672,130.476-222.156c-0.046,3.32,0.592,7.288,2.289,12.038
				c0,0,5.35,16.166,40.744,27.073c0,0-52.267-4.445-74.902,14.542c0,0-10.7,9.698-14.814,17.778c0,0-16.873,28.28-31.277,10.502
				c0,0-4.938,14.545,11.113,24.24c0,0-23.871,15.353-23.458,52.121c0,0-0.413,41.61-2.881,53.73c0,0-6.173,38.381-30.864,34.745
				c0,0,16.05,20.2,48.563-4.444c0,0,15.225,42.825,31.277,57.775c0,0-6.585,19.39-0.823,30.705c0,0,8.229,41.205-29.634,22.221
				c0,0,5.763,18.585,36.217,10.91c0,0,12.346-2.426,10.287-24.246c0,0,9.467-13.734,14.407-8.074c0,0,0,0.399,7.819,6.459
				c0,0-2.059,10.101,4.114,20.611c0,0,1.648,12.925-2.469,15.35c0,0,8.642,1.609,18.108-14.146c0,0,2.056-6.055,6.173-7.265
				c0,0,22.63,12.115,35.392,12.925C186.815,426.939,209.45,435.825,201.626,449.565L201.626,449.565z M431.556,466.853
				c2.408-4.239,19.496-36.16,8.766-72.633c0,0-6.582-29.096-33.334-56.571c0,0-21.811-20.6-52.675-31.104
				c0,0-19.344-7.271-58.026-1.615c0,0-51.444,3.635-80.252-3.235c0,0-33.335-2.825-48.973-30.3c0,0-11.523-24.646,1.651-46.061
				c0,0-18.113-26.258,2.466-38.78c0,0,0.41,29.895,11.521,36.76c0,0,15.637,12.936,37.042,9.295c0,0,15.632-5.255,23.046-14.135
				c0,0,10.694-9.295,34.981,3.635c0,0,34.155,16.155,62.964,52.116c0,0,8.639-2.426,19.339,3.64c0,0,28.809,11.305,47.742-8.49
				c0,0,11.521,12.525,21.811,57.37c0,0,11.525,52.521,46.506,37.576c0,0-17.697,7.27-33.744-24.646c0,0,16.871,10.505,41.563,3.635
				c0,0,16.463-4.845,16.463-20.604c0,0,3.293-16.561-16.873-23.836c0,0,19.34,11.311,9.875,30.705c0,0-8.234,12.525-28.809,9.695
				c0,0-14.4,3.235-30.043-18.585c0,0-7.814-20.601-12.756-38.785c0,0-9.055-27.065-23.872-35.15c0,0,21.811-5.255,23.872,7.68
				c0,0,0,5.245,2.465,5.245c0,0,7.82-4.707,5.625-13.33l-0.271-0.805c0,0,6.859-0.272,5.762-9.429c0,0-0.547-5.117,4.113-8.618
				c0,0,8.232-1.615-5.486-13.735c0,0,2.471-2.697,9.879-1.349c0,0,5.215,2.697,1.369-4.578c0,0-5.486-11.043-17.012-14.814
				c0,0-3.84-2.963-8.504,2.161c0,0-7.682,5.381-16.459,0.533c0,0-10.422-4.038-16.185-7.809c0,0-1.923-2.425-13.448-3.771
				c0,0-19.754-5.122-31.551-22.087c0,0-6.589-10.236,3.845-13.199c0,0,9.326-2.151,15.633,0.271c0,0-4.661-19.665-24.691-29.359
				c0,0-7.127-3.232-20.847,0.269c0,0,0.82-21.815-14.817-23.433c0,0-27.162,1.618-38.959-2.153c0,0-8.783-0.002-12.346-9.426
				c0,0-6.583,2.153-10.013,8.619c0,0-4.942-10.505-28.398-11.313c0,0-15.638-6.868-13.992-29.093c0,0,2.881-18.985,19.344-18.985
				c0,0,15.222-2.022,20.574,16.565c0,0,4.865-12.879-5.886-20.464c7.813-0.723,15.729-1.113,23.728-1.113
				c140.458,0,254.322,113.859,254.322,254.315C509.597,355.567,479.655,420.582,431.556,466.853L431.556,466.853z M380.788,209.982
				c-4.389,6.198-9.874,5.122-9.874,5.122c-9.608-2.425-8.783-8.896-8.783-8.896c0-12.925,13.992-10.231,13.992-10.231
				c14.816,0,19.754,12.123,19.754,12.123C383.802,205.676,380.788,209.982,380.788,209.982L380.788,209.982z M403.562,259.273
				c-3.568,5.927-14.273,7.813-14.273,7.813c-9.326-6.193-1.641-20.2-1.641-20.2C394.779,250.116,403.562,259.273,403.562,259.273
				L403.562,259.273z M381.885,242.308c0,0-10.429,10.505,2.466,24.779c0,0-21.948,4.579-47.737-16.427
				c0,0-57.34-44.174-84.774-50.911c0,0,23.595-20.736,46.912-16.968c0,0,13.443,2.156,25.245,13.469
				C323.997,196.25,357.742,234.494,381.885,242.308L381.885,242.308z M285.037,158.272c0,0-17.836-5.386-33.474-7.272
				c0,0-1.917-17.778,19.206-17.778c0,0,7.68-1.077,19.2,8.08c0,0,14.821,13.735,24.974,16.429
				C314.943,157.731,302.042,162.581,285.037,158.272L285.037,158.272z"/>
		</g>
	</g>
	<g>
		<defs>
			<path id="SVGID_3_" d="M493.257,435.251L264.606,564.583V463.849l142.463-78.365L493.257,435.251z M508.896,421.085V150.602
				l-83.672,48.286v173.855L508.896,421.085L508.896,421.085z M15.887,435.251l228.652,129.332V463.849l-142.462-78.365
				L15.887,435.251L15.887,435.251z M0.25,421.085V150.602l83.672,48.286v173.855L0.25,421.085L0.25,421.085z M10.038,133.099
				L244.539,0.429v97.396l-150.23,82.636l-1.148,0.656L10.038,133.099z M499.108,133.099L264.606,0.429v97.396l150.229,82.636
				l1.148,0.656L499.108,133.099z"/>
		</defs>
		<clipPath id="SVGID_4_">
			<use xlink:href="#SVGID_3_"  overflow="visible"/>
		</clipPath>
		<g clip-path="url(#SVGID_4_)">
			<path fill-rule="evenodd" clip-rule="evenodd" fill="#FFFFFF" stroke="#000000" stroke-width="0.5" stroke-miterlimit="10" d="
				M254.578,7.816c-151.709,0-274.694,122.98-274.694,274.692c0,151.711,122.985,274.691,274.694,274.691
				c151.707,0,274.691-122.98,274.691-274.691C529.269,130.797,406.284,7.816,254.578,7.816L254.578,7.816z M148.129,60.096
				c0,0,12.758-13.735,23.871,2.425c0,0-0.959-10.59-10.308-15.514c9.054-3.586,18.37-6.652,27.9-9.198
				c-2.694,4.12-4.617,9.521-4.837,16.629c0,0,0.413,18.987,20.577,36.765c0,0-27.983-5.25-49.386-10.097
				C155.948,81.106,138.252,71.813,148.129,60.096L148.129,60.096z M201.629,449.565c0,0-6.173,18.58-25.927,24.645
				c0,0-25.517,3.635-53.087-2.43c0,0-46.504-6.055-71.608-41.61c0,0-6.585-5.655-17.696-22.626v0.195
				C12.713,371.005,0.96,328.651,0.96,283.544c0-95.489,52.639-178.672,130.476-222.156c-0.046,3.32,0.592,7.288,2.289,12.038
				c0,0,5.35,16.166,40.744,27.073c0,0-52.267-4.445-74.902,14.542c0,0-10.7,9.698-14.814,17.778c0,0-16.873,28.28-31.277,10.502
				c0,0-4.938,14.545,11.113,24.24c0,0-23.871,15.353-23.458,52.121c0,0-0.413,41.61-2.881,53.73c0,0-6.173,38.381-30.864,34.745
				c0,0,16.05,20.2,48.563-4.444c0,0,15.225,42.825,31.277,57.775c0,0-6.585,19.39-0.823,30.705c0,0,8.229,41.205-29.634,22.221
				c0,0,5.763,18.585,36.217,10.91c0,0,12.346-2.426,10.287-24.246c0,0,9.467-13.734,14.407-8.074c0,0,0,0.399,7.819,6.459
				c0,0-2.059,10.101,4.114,20.611c0,0,1.648,12.925-2.469,15.35c0,0,8.642,1.609,18.108-14.146c0,0,2.056-6.055,6.173-7.265
				c0,0,22.633,12.115,35.392,12.925C186.815,426.939,209.45,435.825,201.629,449.565L201.629,449.565z M431.556,466.853
				c2.408-4.239,19.496-36.16,8.766-72.633c0,0-6.582-29.096-33.334-56.571c0,0-21.811-20.6-52.675-31.104
				c0,0-19.344-7.271-58.026-1.615c0,0-51.444,3.635-80.25-3.235c0,0-33.335-2.825-48.975-30.3c0,0-11.523-24.646,1.648-46.061
				c0,0-18.111-26.258,2.468-38.78c0,0,0.41,29.895,11.523,36.76c0,0,15.635,12.936,37.04,9.295c0,0,15.635-5.255,23.046-14.135
				c0,0,10.694-9.295,34.981,3.635c0,0,34.155,16.155,62.964,52.116c0,0,8.639-2.426,19.339,3.64c0,0,28.809,11.305,47.742-8.49
				c0,0,11.521,12.525,21.811,57.37c0,0,11.525,52.521,46.506,37.576c0,0-17.697,7.27-33.744-24.646c0,0,16.871,10.505,41.563,3.635
				c0,0,16.463-4.845,16.463-20.604c0,0,3.293-16.561-16.873-23.836c0,0,19.34,11.311,9.875,30.705c0,0-8.234,12.525-28.809,9.695
				c0,0-14.4,3.235-30.043-18.585c0,0-7.814-20.601-12.756-38.785c0,0-9.055-27.065-23.872-35.15c0,0,21.811-5.255,23.872,7.68
				c0,0,0,5.245,2.465,5.245c0,0,7.82-4.707,5.625-13.33l-0.271-0.805c0,0,6.859-0.272,5.762-9.429c0,0-0.547-5.117,4.113-8.618
				c0,0,8.232-1.615-5.486-13.735c0,0,2.471-2.697,9.879-1.349c0,0,5.215,2.697,1.369-4.578c0,0-5.486-11.043-17.012-14.814
				c0,0-3.84-2.963-8.504,2.161c0,0-7.682,5.381-16.459,0.533c0,0-10.422-4.038-16.185-7.809c0,0-1.923-2.425-13.448-3.771
				c0,0-19.754-5.122-31.551-22.087c0,0-6.589-10.236,3.845-13.199c0,0,9.326-2.151,15.633,0.271c0,0-4.661-19.665-24.691-29.359
				c0,0-7.127-3.232-20.847,0.269c0,0,0.82-21.815-14.817-23.433c0,0-27.162,1.618-38.959-2.153c0,0-8.783-0.002-12.346-9.426
				c0,0-6.583,2.153-10.013,8.619c0,0-4.94-10.505-28.398-11.313c0,0-15.638-6.868-13.992-29.093c0,0,2.881-18.985,19.344-18.985
				c0,0,15.224-2.022,20.574,16.565c0,0,4.865-12.879-5.886-20.464c7.813-0.723,15.729-1.113,23.728-1.113
				c140.458,0,254.322,113.859,254.322,254.315C509.597,355.567,479.655,420.582,431.556,466.853L431.556,466.853z M380.788,209.982
				c-4.389,6.198-9.874,5.122-9.874,5.122c-9.608-2.425-8.783-8.896-8.783-8.896c0-12.925,13.992-10.231,13.992-10.231
				c14.816,0,19.754,12.123,19.754,12.123C383.802,205.676,380.788,209.982,380.788,209.982L380.788,209.982z M403.562,259.273
				c-3.568,5.927-14.273,7.813-14.273,7.813c-9.326-6.193-1.641-20.2-1.641-20.2C394.779,250.116,403.562,259.273,403.562,259.273
				L403.562,259.273z M381.885,242.308c0,0-10.429,10.505,2.466,24.779c0,0-21.948,4.579-47.737-16.427
				c0,0-57.34-44.174-84.774-50.911c0,0,23.595-20.736,46.912-16.968c0,0,13.443,2.156,25.245,13.469
				C323.997,196.25,357.742,234.494,381.885,242.308L381.885,242.308z M285.037,158.272c0,0-17.836-5.386-33.474-7.272
				c0,0-1.917-17.778,19.206-17.778c0,0,7.68-1.077,19.2,8.08c0,0,14.821,13.735,24.974,16.429
				C314.943,157.731,302.042,162.581,285.037,158.272L285.037,158.272z"/>
		</g>
	</g>
	<path opacity="0.85" fill="#BF2F38" stroke="#000000" stroke-width="0.5" stroke-miterlimit="10" d="M493.257,435.251
		L264.606,564.583V463.849l142.463-78.365L493.257,435.251z M508.896,421.085V150.602l-83.672,48.286v173.855L508.896,421.085
		L508.896,421.085z M15.887,435.251l228.652,129.332V463.849l-142.462-78.365L15.887,435.251L15.887,435.251z M0.25,421.085V150.602
		l83.672,48.286v173.855L0.25,421.085L0.25,421.085z M10.038,133.099L244.539,0.429v97.396l-150.23,82.636l-1.148,0.656
		L10.038,133.099z M499.108,133.099L264.606,0.429v97.396l150.229,82.636l1.148,0.656L499.108,133.099z"/>
	<path opacity="0.85" fill="#FFFFFF" stroke="#000000" stroke-width="0.5" stroke-miterlimit="10" d="M244.539,445.366
		l-140.548-77.273V214.971l140.548,81.155V445.366 M264.606,445.366l140.549-77.273V214.971l-140.549,81.155V445.366
		 M113.507,197.252l141.091-77.604l141.094,77.604l-141.094,81.483L113.507,197.252"/>
</g>
</svg>
